<?xml version="1.0" standalone="no"?>
<!DOCTYPE svg PUBLIC "-//W3C//DTD SVG 20010904//EN"
 "http://www.w3.org/TR/2001/REC-SVG-20010904/DTD/svg10.dtd">
<svg version="1.0" xmlns="http://www.w3.org/2000/svg"
 width="512.000000pt" height="512.000000pt" viewBox="0 0 512.000000 512.000000"
 preserveAspectRatio="xMidYMid meet">
<metadata>
Created by potrace 1.14, written by Peter Selinger 2001-2017
</metadata>
<g transform="translate(0.000000,512.000000) scale(0.100000,-0.100000)"
fill="#000000" stroke="none">
<path d="M2546 5090 c-8 -19 -66 -189 -128 -377 l-113 -341 -98 -47 c-116 -56
-327 -169 -387 -206 -14 -9 -74 -47 -135 -84 -100 -62 -348 -233 -399 -275
-241 -200 -271 -227 -400 -356 -263 -263 -315 -347 -321 -522 -3 -108 9 -156
77 -302 40 -84 57 -123 63 -140 1 -3 7 -17 12 -31 71 -169 176 -553 228 -829
21 -117 41 -234 50 -295 3 -23 7 -50 9 -61 2 -11 7 -47 10 -80 3 -32 8 -77 11
-99 3 -22 7 -56 9 -75 8 -77 57 -149 124 -184 15 -8 88 -26 162 -40 74 -15
146 -28 160 -31 14 -3 75 -14 135 -25 61 -12 142 -27 180 -35 39 -8 81 -16 95
-18 68 -13 361 -69 405 -78 l50 -11 0 -177 c0 -196 6 -239 44 -293 64 -91 243
-103 324 -22 50 50 59 96 61 303 1 99 5 183 8 186 6 6 18 9 438 89 157 31 382
74 500 96 138 27 228 49 250 63 40 23 76 60 96 98 11 23 30 139 39 244 1 17 5
46 8 65 3 19 11 71 18 115 6 44 13 89 15 100 2 10 6 36 9 56 5 30 64 323 80
392 2 10 14 52 25 95 12 42 23 82 24 87 33 140 121 382 201 552 52 110 67 162
71 244 4 90 -16 183 -53 252 -69 126 -386 444 -632 635 -47 37 -88 69 -91 72
-10 11 -207 148 -290 202 -173 111 -381 227 -580 323 l-95 46 -98 297 c-54
163 -111 333 -127 377 l-28 80 -16 -35z"/>
</g>
</svg>
